<svg xmlns="http://www.w3.org/2000/svg" xmlns:xlink="http://www.w3.org/1999/xlink" width="2000" zoomAndPan="magnify" viewBox="0 0 1500 1499.999933" height="2000" preserveAspectRatio="xMidYMid meet" version="1.0"><path fill="#f3eee2" d="M 115.640625 942.015625 L 119.339844 947.558594 L 117.492188 958.648438 L 121.1875 967.886719 L 119.339844 971.582031 L 123.035156 997.457031 L 121.1875 1006.699219 L 124.882812 1010.394531 L 123.035156 1014.089844 L 128.578125 1023.332031 L 126.730469 1032.570312 L 130.425781 1036.265625 L 126.730469 1049.203125 L 132.273438 1051.050781 L 128.578125 1058.445312 L 135.972656 1065.835938 L 137.820312 1071.378906 L 135.972656 1076.925781 L 139.667969 1078.773438 L 141.515625 1084.316406 L 139.667969 1093.558594 L 143.363281 1097.253906 L 150.753906 1121.277344 L 158.148438 1132.367188 L 161.84375 1147.152344 L 167.386719 1152.695312 L 172.933594 1167.480469 L 182.171875 1176.722656 L 180.324219 1180.417969 L 189.566406 1185.960938 L 195.109375 1198.898438 L 202.503906 1204.441406 L 206.199219 1215.53125 L 224.679688 1230.316406 L 222.832031 1234.011719 L 241.3125 1250.644531 L 241.3125 1254.339844 L 248.703125 1261.734375 L 254.25 1261.734375 L 263.488281 1274.667969 L 269.035156 1274.667969 L 278.273438 1285.757812 L 281.96875 1285.757812 L 304.148438 1304.238281 L 322.628906 1313.480469 L 335.5625 1324.566406 L 339.261719 1322.71875 L 352.195312 1333.808594 L 365.132812 1337.503906 L 366.980469 1343.050781 L 378.070312 1344.898438 L 387.3125 1352.289062 L 394.703125 1354.136719 L 400.246094 1352.289062 L 413.183594 1361.53125 L 416.878906 1359.683594 L 422.425781 1361.53125 L 426.121094 1367.074219 L 442.753906 1368.921875 L 450.144531 1372.617188 L 453.84375 1370.769531 L 457.539062 1376.316406 L 479.714844 1383.707031 L 487.109375 1392.949219 L 481.5625 1398.492188 L 483.410156 1404.035156 L 476.019531 1420.667969 L 476.019531 1429.910156 L 468.625 1437.300781 L 470.476562 1440.996094 L 468.625 1452.085938 L 472.324219 1453.933594 L 476.019531 1465.023438 L 490.804688 1472.414062 L 500.042969 1470.566406 L 516.675781 1472.414062 L 524.070312 1468.71875 L 527.765625 1472.414062 L 551.789062 1476.109375 L 564.726562 1472.414062 L 572.121094 1476.109375 L 575.816406 1470.566406 L 579.511719 1476.109375 L 583.207031 1474.261719 L 586.902344 1476.109375 L 590.601562 1474.261719 L 594.296875 1476.109375 L 636.800781 1474.261719 L 638.652344 1476.109375 L 642.347656 1472.414062 L 646.042969 1474.261719 L 647.890625 1472.414062 L 653.433594 1474.261719 L 695.941406 1472.414062 L 697.789062 1474.261719 L 703.332031 1470.566406 L 712.574219 1474.261719 L 760.625 1474.261719 L 762.472656 1476.109375 L 764.320312 1474.261719 L 768.015625 1476.109375 L 773.5625 1474.261719 L 775.410156 1476.109375 L 803.128906 1476.109375 L 806.828125 1472.414062 L 827.15625 1476.109375 L 836.394531 1474.261719 L 845.636719 1476.109375 L 849.332031 1472.414062 L 853.027344 1476.109375 L 856.726562 1472.414062 L 873.359375 1472.414062 L 877.054688 1476.109375 L 878.902344 1472.414062 L 880.75 1476.109375 L 893.6875 1477.960938 L 902.925781 1476.109375 L 906.621094 1477.960938 L 908.472656 1472.414062 L 912.167969 1477.960938 L 915.863281 1472.414062 L 921.40625 1474.261719 L 925.105469 1472.414062 L 928.800781 1476.109375 L 954.671875 1476.109375 L 956.519531 1474.261719 L 962.066406 1476.109375 L 960.21875 1472.414062 L 963.914062 1470.566406 L 965.761719 1476.109375 L 969.457031 1474.261719 L 978.699219 1476.109375 L 997.179688 1470.566406 L 1000.875 1474.261719 L 1006.417969 1472.414062 L 1017.507812 1474.261719 L 1032.292969 1470.566406 L 1032.292969 1465.023438 L 1037.835938 1459.476562 L 1037.835938 1450.238281 L 1032.292969 1439.148438 L 1034.140625 1431.757812 L 1026.75 1418.820312 L 1028.597656 1413.277344 L 1023.050781 1404.035156 L 1024.902344 1394.796875 L 1023.050781 1391.097656 L 1030.445312 1383.707031 L 1052.621094 1376.316406 L 1060.015625 1370.769531 L 1067.40625 1372.617188 L 1084.039062 1363.378906 L 1098.824219 1359.683594 L 1117.304688 1348.59375 L 1121 1350.441406 L 1126.546875 1343.050781 L 1137.632812 1337.503906 L 1143.179688 1337.503906 L 1172.746094 1320.871094 L 1189.378906 1304.238281 L 1206.011719 1293.152344 L 1209.710938 1293.152344 L 1218.949219 1280.214844 L 1224.492188 1276.519531 L 1226.34375 1278.367188 L 1244.824219 1261.734375 L 1252.214844 1245.101562 L 1257.757812 1243.253906 L 1263.304688 1235.859375 L 1267 1235.859375 L 1276.238281 1224.773438 L 1278.089844 1217.378906 L 1285.480469 1209.988281 L 1289.175781 1209.988281 L 1291.023438 1200.746094 L 1296.570312 1197.050781 L 1296.570312 1193.355469 L 1305.808594 1184.113281 L 1305.808594 1178.570312 L 1318.746094 1163.785156 L 1318.746094 1156.390625 L 1326.136719 1147.152344 L 1324.289062 1141.609375 L 1339.074219 1117.582031 L 1340.921875 1102.796875 L 1350.164062 1091.710938 L 1348.316406 1084.316406 L 1357.554688 1073.226562 L 1355.707031 1065.835938 L 1366.796875 1051.050781 L 1363.101562 1038.113281 L 1368.644531 1028.875 L 1366.796875 1021.480469 L 1370.492188 1015.9375 L 1368.644531 1010.394531 L 1372.339844 999.304688 L 1370.492188 995.609375 L 1374.1875 986.367188 L 1372.339844 980.824219 L 1376.035156 967.886719 L 1374.1875 958.648438 L 1376.035156 953.101562 L 1368.644531 942.015625 L 1363.101562 943.863281 L 1352.011719 936.46875 L 1348.316406 938.316406 L 1339.074219 936.46875 L 1331.683594 940.167969 L 1322.441406 934.621094 L 1294.722656 936.46875 L 1287.328125 932.773438 L 1254.0625 934.621094 L 1252.214844 932.773438 L 1189.378906 932.773438 L 1183.835938 930.925781 L 1178.292969 936.46875 L 1170.898438 930.925781 L 1167.203125 932.773438 L 1104.367188 930.925781 L 1100.671875 938.316406 L 1096.976562 940.167969 L 1095.128906 936.46875 L 1089.582031 934.621094 L 1089.582031 930.925781 L 1082.191406 929.078125 L 1061.863281 932.773438 L 1058.167969 929.078125 L 1054.46875 930.925781 L 1037.835938 927.230469 L 1028.597656 929.078125 L 1023.050781 927.230469 L 1019.355469 929.078125 L 1017.507812 927.230469 L 1000.875 929.078125 L 997.179688 927.230469 L 982.394531 929.078125 L 956.519531 927.230469 L 954.671875 929.078125 L 947.28125 925.382812 L 906.621094 927.230469 L 901.078125 923.535156 L 893.6875 927.230469 L 880.75 925.382812 L 869.660156 927.230469 L 854.875 925.382812 L 851.179688 927.230469 L 827.15625 927.230469 L 825.308594 925.382812 L 821.609375 927.230469 L 814.21875 925.382812 L 758.777344 927.230469 L 749.535156 925.382812 L 747.6875 927.230469 L 734.75 923.535156 L 714.421875 927.230469 L 710.726562 923.535156 L 697.789062 925.382812 L 694.09375 921.683594 L 688.550781 925.382812 L 673.765625 923.535156 L 655.285156 925.382812 L 646.042969 921.683594 L 638.652344 923.535156 L 623.867188 919.835938 L 616.472656 923.535156 L 614.625 921.683594 L 590.601562 923.535156 L 570.269531 919.835938 L 507.4375 921.683594 L 501.890625 917.988281 L 494.5 921.683594 L 481.5625 921.683594 L 479.714844 917.988281 L 468.625 921.683594 L 463.082031 919.835938 L 461.234375 921.683594 L 459.386719 919.835938 L 442.753906 921.683594 L 437.210938 917.988281 L 433.511719 921.683594 L 418.726562 921.683594 L 409.488281 917.988281 L 298.601562 919.835938 L 261.640625 916.140625 L 257.945312 919.835938 L 245.007812 914.292969 L 230.222656 917.988281 L 222.832031 917.988281 L 219.136719 914.292969 L 202.503906 916.140625 L 193.261719 921.683594 L 191.414062 917.988281 L 180.324219 916.140625 L 165.539062 919.835938 L 148.90625 917.988281 L 145.210938 921.683594 L 132.273438 919.835938 L 121.1875 930.925781 Z M 158.148438 478.144531 L 159.996094 483.6875 L 154.453125 498.472656 L 156.300781 502.167969 L 154.453125 520.652344 L 150.753906 524.347656 L 150.753906 548.371094 L 148.90625 550.21875 L 150.753906 557.613281 L 147.058594 566.851562 L 150.753906 576.09375 L 148.90625 577.941406 L 150.753906 587.183594 L 148.90625 601.964844 L 152.605469 607.511719 L 150.753906 613.054688 L 152.605469 629.6875 L 156.300781 640.777344 L 156.300781 651.863281 L 161.84375 661.105469 L 163.691406 668.496094 L 161.84375 670.347656 L 167.386719 679.585938 L 167.386719 686.976562 L 174.78125 698.066406 L 174.78125 705.460938 L 178.476562 709.15625 L 182.171875 722.09375 L 193.261719 735.027344 L 196.957031 747.964844 L 211.742188 760.902344 L 209.894531 764.597656 L 224.679688 777.535156 L 233.917969 790.472656 L 248.703125 801.558594 L 248.703125 805.257812 L 252.402344 805.257812 L 256.097656 810.800781 L 261.640625 812.648438 L 276.425781 825.585938 L 278.273438 823.738281 L 302.300781 840.371094 L 318.933594 845.914062 L 322.628906 851.457031 L 337.414062 853.304688 L 350.347656 860.699219 L 352.195312 858.851562 L 366.980469 866.242188 L 374.375 866.242188 L 389.160156 871.785156 L 392.855469 869.9375 L 416.878906 875.484375 L 435.359375 873.636719 L 440.90625 877.332031 L 457.539062 875.484375 L 479.714844 877.332031 L 492.652344 873.636719 L 498.195312 875.484375 L 503.742188 871.785156 L 537.003906 868.089844 L 564.726562 857.003906 L 572.121094 857.003906 L 573.96875 853.304688 L 583.207031 849.609375 L 585.054688 851.457031 L 590.601562 845.914062 L 622.019531 832.976562 L 627.5625 825.585938 L 647.890625 814.496094 L 651.585938 807.105469 L 657.132812 805.257812 L 677.460938 788.625 L 679.308594 783.078125 L 690.398438 773.839844 L 710.726562 749.8125 L 710.726562 746.117188 L 721.8125 733.179688 L 727.359375 720.242188 L 734.75 712.851562 L 738.445312 699.914062 L 743.992188 696.21875 L 743.992188 686.976562 L 753.230469 672.195312 L 751.382812 670.347656 L 762.472656 633.382812 L 766.167969 629.6875 L 755.078125 611.207031 L 740.296875 609.359375 L 731.054688 601.964844 L 708.878906 598.269531 L 699.636719 592.726562 L 697.789062 594.574219 L 694.09375 592.726562 L 690.398438 598.269531 L 688.550781 596.421875 L 690.398438 590.878906 L 655.285156 579.789062 L 651.585938 581.636719 L 646.042969 577.941406 L 629.410156 574.246094 L 625.714844 570.550781 L 618.320312 570.550781 L 603.535156 565.003906 L 592.449219 566.851562 L 586.902344 561.308594 L 581.359375 563.15625 L 564.726562 555.765625 L 535.15625 550.21875 L 522.222656 544.675781 L 507.4375 542.828125 L 501.890625 539.132812 L 483.410156 537.285156 L 464.929688 529.890625 L 461.234375 531.738281 L 455.691406 526.195312 L 431.664062 524.347656 L 429.816406 520.652344 L 403.945312 516.953125 L 398.398438 513.257812 L 381.765625 511.410156 L 376.222656 507.714844 L 365.132812 507.714844 L 346.652344 500.320312 L 342.957031 502.167969 L 330.019531 496.625 L 307.84375 494.777344 L 305.996094 491.082031 L 294.90625 487.386719 L 270.882812 485.539062 L 259.792969 479.992188 L 237.617188 479.992188 L 226.527344 474.449219 L 217.285156 474.449219 L 200.652344 468.90625 L 172.933594 470.753906 L 169.238281 467.054688 Z M 1303.960938 862.546875 L 1300.265625 840.371094 L 1302.113281 836.671875 L 1294.722656 810.800781 L 1296.570312 803.40625 L 1287.328125 783.078125 L 1289.175781 779.382812 L 1279.9375 770.140625 L 1281.785156 768.292969 L 1279.9375 757.207031 L 1270.695312 749.8125 L 1272.542969 746.117188 L 1261.457031 735.027344 L 1255.910156 723.941406 L 1250.367188 720.242188 L 1250.367188 716.546875 L 1235.582031 701.761719 L 1226.34375 696.21875 L 1217.101562 685.128906 L 1213.40625 685.128906 L 1196.773438 670.347656 L 1183.835938 666.648438 L 1176.445312 659.257812 L 1169.050781 659.257812 L 1154.265625 650.015625 L 1150.570312 651.863281 L 1135.785156 642.625 L 1132.089844 644.472656 L 1126.546875 640.777344 L 1119.152344 640.777344 L 1115.457031 637.082031 L 1096.976562 637.082031 L 1087.734375 633.382812 L 1084.039062 635.230469 L 1047.078125 631.535156 L 1045.230469 633.382812 L 999.027344 635.230469 L 950.976562 642.625 L 947.28125 646.320312 L 917.710938 653.714844 L 906.621094 661.105469 L 902.925781 659.257812 L 888.140625 672.195312 L 878.902344 674.042969 L 867.8125 685.128906 L 862.269531 686.976562 L 830.851562 716.546875 L 827.15625 725.789062 L 812.371094 738.726562 L 808.675781 746.117188 L 810.523438 749.8125 L 803.128906 757.207031 L 782.800781 799.710938 L 784.648438 805.257812 L 775.410156 823.738281 L 777.257812 832.976562 L 771.710938 871.785156 L 780.953125 881.027344 L 792.042969 884.722656 L 808.675781 882.875 L 819.761719 886.570312 L 827.15625 884.722656 L 843.789062 888.417969 L 849.332031 886.570312 L 873.359375 890.269531 L 891.839844 888.417969 L 893.6875 890.269531 L 952.824219 890.269531 L 954.671875 892.117188 L 975.003906 888.417969 L 982.394531 892.117188 L 995.332031 888.417969 L 999.027344 890.269531 L 1011.964844 888.417969 L 1013.8125 882.875 L 1019.355469 888.417969 L 1023.050781 886.570312 L 1028.597656 888.417969 L 1032.292969 884.722656 L 1035.988281 888.417969 L 1063.710938 888.417969 L 1065.558594 886.570312 L 1093.28125 888.417969 L 1102.519531 884.722656 L 1111.761719 888.417969 L 1122.847656 884.722656 L 1124.695312 886.570312 L 1130.242188 884.722656 L 1145.027344 886.570312 L 1163.507812 882.875 L 1165.355469 884.722656 L 1211.558594 882.875 L 1213.40625 881.027344 L 1224.492188 882.875 L 1276.238281 875.484375 L 1291.023438 877.332031 L 1302.113281 871.785156 Z M 1113.609375 212.019531 L 1108.0625 210.171875 L 1104.367188 212.019531 L 1102.519531 206.476562 L 1096.976562 202.78125 L 1089.582031 206.476562 L 1084.039062 202.78125 L 1058.167969 219.414062 L 1052.621094 221.261719 L 1047.078125 219.414062 L 1035.988281 228.652344 L 1034.140625 226.804688 L 1028.597656 228.652344 L 1013.8125 243.4375 L 1010.117188 241.589844 L 999.027344 254.527344 L 989.785156 258.222656 L 987.9375 263.765625 L 975.003906 271.160156 L 963.914062 284.097656 L 956.519531 287.792969 L 945.433594 304.425781 L 921.40625 330.296875 L 915.863281 341.386719 L 910.320312 345.082031 L 910.320312 348.777344 L 897.382812 361.714844 L 895.535156 369.109375 L 891.839844 370.957031 L 878.902344 391.285156 L 878.902344 394.980469 L 873.359375 400.523438 L 873.359375 406.070312 L 862.269531 422.703125 L 864.117188 428.246094 L 860.421875 430.09375 L 856.726562 437.488281 L 856.726562 443.03125 L 851.179688 452.273438 L 853.027344 459.664062 L 845.636719 472.601562 L 843.789062 483.6875 L 840.09375 485.539062 L 838.242188 492.929688 L 840.09375 498.472656 L 834.546875 504.019531 L 836.394531 509.5625 L 834.546875 511.410156 L 834.546875 529.890625 L 838.242188 539.132812 L 834.546875 552.066406 L 838.242188 557.613281 L 840.09375 555.765625 L 849.332031 570.550781 L 865.964844 572.398438 L 869.660156 568.699219 L 893.6875 565.003906 L 925.105469 550.21875 L 943.585938 535.433594 L 947.28125 535.433594 L 952.824219 528.042969 L 962.066406 524.347656 L 976.851562 507.714844 L 982.394531 507.714844 L 1004.570312 476.296875 L 1010.117188 476.296875 L 1019.355469 461.511719 L 1030.445312 450.421875 L 1037.835938 435.640625 L 1048.925781 424.550781 L 1050.773438 415.308594 L 1058.167969 407.917969 L 1061.863281 400.523438 L 1060.015625 396.828125 L 1074.796875 382.042969 L 1078.496094 367.257812 L 1076.648438 365.410156 L 1084.039062 361.714844 L 1091.429688 335.84375 L 1102.519531 317.359375 L 1100.671875 313.664062 L 1106.214844 302.578125 L 1109.914062 302.578125 L 1109.914062 295.183594 L 1113.609375 284.097656 L 1111.761719 285.945312 L 1109.914062 282.246094 L 1117.304688 273.007812 L 1117.304688 252.679688 L 1119.152344 250.832031 L 1121 252.679688 L 1121 258.222656 L 1122.847656 254.527344 L 1117.304688 248.980469 L 1122.847656 230.5 Z M 1329.835938 459.664062 L 1326.136719 455.96875 L 1324.289062 446.726562 L 1318.746094 444.878906 L 1315.050781 435.640625 L 1307.65625 435.640625 L 1296.570312 426.398438 L 1294.722656 428.246094 L 1289.175781 424.550781 L 1276.238281 426.398438 L 1268.847656 420.855469 L 1263.304688 424.550781 L 1261.457031 422.703125 L 1244.824219 424.550781 L 1239.277344 422.703125 L 1224.492188 426.398438 L 1218.949219 424.550781 L 1207.859375 430.09375 L 1198.621094 428.246094 L 1194.925781 431.941406 L 1187.53125 431.941406 L 1181.988281 435.640625 L 1176.445312 433.789062 L 1165.355469 441.183594 L 1152.417969 443.03125 L 1145.027344 448.574219 L 1137.632812 448.574219 L 1122.847656 455.96875 L 1121 459.664062 L 1108.0625 463.359375 L 1085.886719 481.839844 L 1078.496094 483.6875 L 1060.015625 502.167969 L 1047.078125 522.5 L 1047.078125 528.042969 L 1037.835938 540.980469 L 1035.988281 563.15625 L 1050.773438 577.941406 L 1058.167969 574.246094 L 1072.949219 581.636719 L 1076.648438 579.789062 L 1087.734375 583.484375 L 1115.457031 583.484375 L 1117.304688 585.332031 L 1143.179688 579.789062 L 1152.417969 581.636719 L 1156.113281 577.941406 L 1159.8125 579.789062 L 1178.292969 572.398438 L 1183.835938 574.246094 L 1202.316406 565.003906 L 1206.011719 566.851562 L 1242.976562 550.21875 L 1248.519531 544.675781 L 1267 539.132812 L 1278.089844 528.042969 L 1281.785156 529.890625 L 1285.480469 528.042969 L 1289.175781 520.652344 L 1298.417969 516.953125 L 1307.65625 507.714844 L 1305.808594 502.167969 L 1311.355469 496.625 L 1316.898438 496.625 L 1320.59375 492.929688 L 1320.59375 485.539062 L 1327.988281 472.601562 L 1326.136719 465.207031 L 1329.835938 463.359375 Z M 793.890625 162.121094 L 779.105469 167.667969 L 773.5625 175.058594 L 768.015625 173.210938 L 758.777344 184.300781 L 760.625 186.148438 L 743.992188 204.628906 L 747.6875 206.476562 L 743.992188 210.171875 L 745.839844 213.867188 L 743.992188 215.714844 L 738.445312 213.867188 L 736.597656 223.109375 L 742.144531 224.957031 L 743.992188 228.652344 L 742.144531 230.5 L 738.445312 228.652344 L 734.75 232.347656 L 732.902344 241.589844 L 738.445312 247.132812 L 736.597656 263.765625 L 743.992188 282.246094 L 753.230469 291.488281 L 755.078125 297.03125 L 775.410156 311.816406 L 784.648438 313.664062 L 793.890625 319.210938 L 799.433594 317.359375 L 810.523438 321.058594 L 832.699219 317.359375 L 847.484375 311.816406 L 858.574219 300.730469 L 864.117188 300.730469 L 864.117188 297.03125 L 871.507812 293.335938 L 877.054688 285.945312 L 877.054688 280.398438 L 880.75 278.550781 L 888.140625 261.917969 L 889.988281 230.5 L 884.445312 215.714844 L 886.292969 210.171875 L 878.902344 202.78125 L 877.054688 195.386719 L 853.027344 173.210938 L 834.546875 163.96875 L 825.308594 165.816406 L 816.066406 162.121094 L 808.675781 165.816406 L 804.976562 162.121094 Z M 575.816406 67.871094 L 559.183594 78.957031 L 540.703125 99.289062 L 542.550781 102.984375 L 535.15625 110.375 L 535.15625 119.617188 L 529.613281 123.3125 L 531.460938 156.578125 L 535.15625 158.425781 L 537.003906 163.96875 L 535.15625 167.667969 L 553.636719 197.234375 L 561.03125 202.78125 L 570.269531 204.628906 L 573.96875 210.171875 L 605.386719 217.566406 L 618.320312 213.867188 L 627.5625 215.714844 L 636.800781 210.171875 L 642.347656 210.171875 L 664.523438 195.386719 L 664.523438 191.691406 L 673.765625 184.300781 L 684.851562 163.96875 L 686.699219 147.335938 L 684.851562 115.921875 L 679.308594 110.375 L 671.917969 90.046875 L 649.738281 69.71875 L 605.386719 62.324219 L 585.054688 67.871094 Z M 653.433594 321.058594 L 631.257812 324.753906 L 627.5625 328.449219 L 612.777344 332.144531 L 609.082031 337.691406 L 603.535156 339.539062 L 585.054688 361.714844 L 573.96875 394.980469 L 577.664062 398.675781 L 577.664062 417.15625 L 581.359375 430.09375 L 590.601562 446.726562 L 597.992188 450.421875 L 596.144531 452.273438 L 601.6875 459.664062 L 607.234375 459.664062 L 614.625 467.054688 L 634.953125 474.449219 L 658.980469 476.296875 L 684.851562 468.90625 L 697.789062 459.664062 L 699.636719 461.511719 L 699.636719 457.816406 L 716.269531 444.878906 L 723.664062 430.09375 L 725.511719 419.007812 L 729.207031 415.308594 L 731.054688 404.222656 L 727.359375 374.652344 L 716.269531 352.476562 L 710.726562 350.625 L 699.636719 335.84375 L 675.613281 324.753906 Z M 444.601562 213.867188 L 416.878906 221.261719 L 405.792969 228.652344 L 402.09375 226.804688 L 383.613281 247.132812 L 383.613281 252.679688 L 378.070312 258.222656 L 370.679688 278.550781 L 372.527344 282.246094 L 370.679688 295.183594 L 372.527344 313.664062 L 378.070312 328.449219 L 383.613281 333.992188 L 383.613281 337.691406 L 398.398438 348.777344 L 402.09375 356.171875 L 407.640625 356.171875 L 424.273438 365.410156 L 455.691406 369.109375 L 459.386719 365.410156 L 470.476562 365.410156 L 496.347656 352.476562 L 509.285156 339.539062 L 511.132812 330.296875 L 518.523438 326.601562 L 525.917969 287.792969 L 522.222656 282.246094 L 524.070312 280.398438 L 522.222656 265.613281 L 514.828125 258.222656 L 516.675781 252.679688 L 511.132812 245.285156 L 503.742188 241.589844 L 501.890625 236.046875 L 494.5 228.652344 L 463.082031 215.714844 Z M 512.980469 657.410156 L 516.675781 646.320312 L 522.222656 646.320312 L 525.917969 650.015625 L 516.675781 659.257812 Z M 1072.949219 949.40625 L 1076.648438 956.800781 L 1071.101562 966.039062 L 1067.40625 964.191406 L 1071.101562 958.648438 L 1067.40625 951.253906 Z M 470.476562 1023.332031 L 476.019531 1017.785156 L 477.867188 1021.480469 L 481.5625 1019.632812 L 485.257812 1021.480469 L 481.5625 1027.027344 L 479.714844 1025.179688 L 474.171875 1027.027344 Z M 1185.683594 1006.699219 L 1189.378906 1004.847656 L 1196.773438 1012.242188 L 1191.226562 1015.9375 L 1185.683594 1010.394531 Z M 980.546875 1455.78125 L 986.089844 1457.628906 L 984.242188 1466.871094 L 978.699219 1463.175781 Z M 1074.796875 978.976562 L 1078.496094 975.28125 L 1085.886719 977.128906 L 1084.039062 982.671875 L 1076.648438 982.671875 Z M 431.664062 1078.773438 L 437.210938 1084.316406 L 435.359375 1089.859375 L 427.96875 1084.316406 Z M 1035.988281 1156.390625 L 1039.683594 1163.785156 L 1032.292969 1169.328125 L 1030.445312 1165.632812 Z M 1189.378906 518.800781 L 1194.925781 515.105469 L 1198.621094 522.5 L 1193.078125 524.347656 Z M 751.382812 1426.214844 L 755.078125 1422.515625 L 762.472656 1429.910156 L 755.078125 1431.757812 Z M 222.832031 986.367188 L 226.527344 982.671875 L 233.917969 988.214844 L 228.375 993.761719 Z M 779.105469 1283.910156 L 782.800781 1291.300781 L 777.257812 1295 L 775.410156 1285.757812 Z M 477.867188 694.371094 L 487.109375 692.523438 L 488.957031 696.21875 L 479.714844 698.066406 Z M 973.152344 354.324219 L 975.003906 359.867188 L 969.457031 365.410156 L 965.761719 361.714844 Z M 535.15625 1038.113281 L 537.003906 1041.8125 L 529.613281 1047.355469 L 527.765625 1041.8125 Z M 372.527344 600.117188 L 374.375 603.816406 L 365.132812 609.359375 L 363.285156 605.664062 Z M 603.535156 1178.570312 L 609.082031 1174.875 L 612.777344 1180.417969 L 609.082031 1184.113281 Z M 973.152344 1450.238281 L 975.003906 1448.390625 L 980.546875 1450.238281 L 982.394531 1453.933594 L 978.699219 1457.628906 Z M 646.042969 1191.507812 L 651.585938 1195.203125 L 647.890625 1200.746094 L 644.195312 1198.898438 Z M 1244.824219 980.824219 L 1246.671875 975.28125 L 1254.0625 977.128906 L 1248.519531 982.671875 Z M 254.25 522.5 L 256.097656 531.738281 L 252.402344 535.433594 L 250.550781 529.890625 Z M 975.003906 1472.414062 L 978.699219 1466.871094 L 984.242188 1470.566406 L 980.546875 1474.261719 Z M 710.726562 1394.796875 L 714.421875 1398.492188 L 708.878906 1404.035156 L 705.179688 1400.339844 Z M 239.464844 1237.707031 L 243.160156 1235.859375 L 250.550781 1239.554688 L 243.160156 1243.253906 Z M 1170.898438 1001.152344 L 1174.59375 1006.699219 L 1169.050781 1012.242188 L 1167.203125 1010.394531 Z M 457.539062 718.394531 L 459.386719 722.09375 L 451.992188 727.636719 L 450.144531 723.941406 Z M 610.929688 609.359375 L 612.777344 613.054688 L 605.386719 618.597656 L 603.535156 614.902344 Z M 952.824219 840.371094 L 954.671875 838.523438 L 963.914062 844.066406 L 956.519531 845.914062 Z M 322.628906 810.800781 L 326.324219 807.105469 L 331.867188 808.953125 L 328.171875 814.496094 Z M 507.4375 1115.734375 L 514.828125 1113.886719 L 516.675781 1117.582031 L 509.285156 1119.429688 Z M 1074.796875 1307.933594 L 1078.496094 1309.785156 L 1076.648438 1317.175781 L 1072.949219 1313.480469 Z M 535.15625 1169.328125 L 537.003906 1176.722656 L 533.308594 1178.570312 L 531.460938 1173.023438 Z M 1061.863281 986.367188 L 1063.710938 988.214844 L 1056.316406 995.609375 L 1054.46875 991.914062 Z M 265.335938 703.609375 L 269.035156 705.460938 L 267.183594 712.851562 L 263.488281 709.15625 Z M 1106.214844 683.28125 L 1108.0625 685.128906 L 1106.214844 688.828125 L 1100.671875 690.675781 L 1098.824219 688.828125 Z M 675.613281 625.992188 L 681.15625 624.144531 L 683.003906 629.6875 L 681.15625 631.535156 Z M 514.828125 278.550781 L 516.675781 276.703125 L 522.222656 284.097656 L 518.523438 285.945312 Z M 764.320312 1426.214844 L 768.015625 1422.515625 L 771.710938 1424.363281 L 769.863281 1429.910156 Z M 620.167969 1391.097656 L 623.867188 1394.796875 L 620.167969 1400.339844 L 616.472656 1396.644531 Z M 1100.671875 945.710938 L 1104.367188 942.015625 L 1108.0625 947.558594 L 1102.519531 949.40625 Z M 1061.863281 771.992188 L 1063.710938 779.382812 L 1060.015625 783.078125 L 1058.167969 779.382812 Z M 640.5 624.144531 L 644.195312 618.597656 L 647.890625 620.449219 L 644.195312 625.992188 Z M 245.007812 555.765625 L 248.703125 550.21875 L 252.402344 552.066406 L 248.703125 557.613281 Z M 1185.683594 1204.441406 L 1189.378906 1202.59375 L 1194.925781 1208.140625 L 1193.078125 1209.988281 Z M 719.964844 954.949219 L 721.8125 958.648438 L 718.117188 964.191406 L 716.269531 956.800781 Z M 849.332031 1376.316406 L 853.027344 1381.859375 L 851.179688 1385.554688 L 845.636719 1380.011719 Z M 1035.988281 1283.910156 L 1039.683594 1282.0625 L 1041.535156 1287.605469 L 1037.835938 1289.453125 Z M 378.070312 1270.972656 L 381.765625 1269.125 L 385.460938 1274.667969 L 381.765625 1276.519531 Z M 599.839844 1232.164062 L 603.535156 1230.316406 L 605.386719 1235.859375 L 601.6875 1237.707031 Z M 1163.507812 1198.898438 L 1169.050781 1195.203125 L 1172.746094 1198.898438 L 1167.203125 1202.59375 Z M 949.128906 1124.976562 L 952.824219 1119.429688 L 956.519531 1121.277344 L 952.824219 1126.824219 Z M 527.765625 1115.734375 L 531.460938 1113.886719 L 535.15625 1119.429688 L 531.460938 1121.277344 Z M 538.855469 1039.964844 L 542.550781 1036.265625 L 548.09375 1039.964844 L 546.246094 1041.8125 Z M 1198.621094 971.582031 L 1202.316406 969.734375 L 1204.164062 975.28125 L 1200.46875 977.128906 Z M 1010.117188 871.785156 L 1013.8125 877.332031 L 1011.964844 881.027344 L 1006.417969 875.484375 Z M 328.171875 740.574219 L 330.019531 738.726562 L 337.414062 740.574219 L 333.714844 744.269531 Z M 496.347656 690.675781 L 501.890625 688.828125 L 503.742188 694.371094 L 501.890625 696.21875 Z M 485.257812 681.433594 L 487.109375 679.585938 L 492.652344 685.128906 L 487.109375 686.976562 Z M 394.703125 563.15625 L 398.398438 559.460938 L 403.945312 561.308594 L 400.246094 565.003906 Z M 261.640625 489.234375 L 265.335938 483.6875 L 269.035156 485.539062 L 267.183594 489.234375 L 263.488281 491.082031 Z M 956.519531 385.742188 L 960.21875 382.042969 L 965.761719 385.742188 L 963.914062 387.589844 Z M 760.625 232.347656 L 764.320312 230.5 L 766.167969 236.046875 L 762.472656 237.894531 Z M 764.320312 1287.605469 L 768.015625 1285.757812 L 771.710938 1289.453125 L 768.015625 1293.152344 Z M 1163.507812 1193.355469 L 1161.660156 1197.050781 L 1154.265625 1195.203125 L 1161.660156 1191.507812 Z M 453.84375 949.40625 L 455.691406 947.558594 L 463.082031 951.253906 L 455.691406 953.101562 Z M 1106.214844 679.585938 L 1109.914062 674.042969 L 1113.609375 677.738281 L 1109.914062 681.433594 Z M 509.285156 640.777344 L 512.980469 638.929688 L 516.675781 642.625 L 512.980469 646.320312 Z M 1126.546875 982.671875 L 1128.394531 986.367188 L 1124.695312 991.914062 L 1122.847656 986.367188 Z M 1080.34375 956.800781 L 1082.191406 960.496094 L 1078.496094 966.039062 L 1076.648438 960.496094 Z M 936.191406 836.671875 L 938.039062 838.523438 L 936.191406 845.914062 L 932.496094 840.371094 Z M 361.4375 609.359375 L 365.132812 613.054688 L 363.285156 618.597656 L 359.589844 613.054688 Z M 743.992188 1420.667969 L 747.6875 1418.820312 L 749.535156 1424.363281 L 747.6875 1426.214844 Z M 1039.683594 1269.125 L 1041.535156 1267.277344 L 1045.230469 1272.820312 L 1041.535156 1274.667969 Z M 1230.039062 1219.226562 L 1233.734375 1217.378906 L 1235.582031 1222.921875 L 1233.734375 1224.773438 Z M 527.765625 1154.542969 L 529.613281 1152.695312 L 533.308594 1158.242188 L 529.613281 1160.089844 Z M 865.964844 1121.277344 L 869.660156 1117.582031 L 873.359375 1119.429688 L 871.507812 1123.125 Z M 888.140625 1097.253906 L 891.839844 1093.558594 L 895.535156 1099.101562 L 891.839844 1100.949219 Z M 699.636719 1071.378906 L 703.332031 1065.835938 L 707.03125 1067.683594 L 701.484375 1073.226562 Z M 1261.457031 1012.242188 L 1263.304688 1014.089844 L 1259.605469 1019.632812 L 1255.910156 1015.9375 Z M 971.304688 1004.847656 L 973.152344 1008.546875 L 967.609375 1012.242188 L 965.761719 1010.394531 Z M 1048.925781 977.128906 L 1052.621094 973.433594 L 1056.316406 975.28125 L 1054.46875 978.976562 Z M 222.832031 975.28125 L 226.527344 971.582031 L 230.222656 973.433594 L 228.375 977.128906 Z M 1048.925781 967.886719 L 1054.46875 966.039062 L 1056.316406 969.734375 L 1052.621094 971.582031 Z M 1206.011719 966.039062 L 1209.710938 964.191406 L 1211.558594 967.886719 L 1207.859375 971.582031 Z M 727.359375 953.101562 L 729.207031 951.253906 L 732.902344 956.800781 L 729.207031 958.648438 Z M 945.433594 858.851562 L 947.28125 864.394531 L 943.585938 866.242188 L 941.738281 862.546875 Z M 1095.128906 827.433594 L 1098.824219 825.585938 L 1100.671875 831.128906 L 1098.824219 832.976562 Z M 379.917969 814.496094 L 383.613281 812.648438 L 387.3125 816.34375 L 381.765625 818.191406 Z M 583.207031 744.269531 L 586.902344 742.421875 L 588.753906 747.964844 L 586.902344 749.8125 Z M 577.664062 738.726562 L 581.359375 735.027344 L 585.054688 736.875 L 583.207031 740.574219 Z M 494.5 711.003906 L 498.195312 709.15625 L 500.042969 712.851562 L 496.347656 716.546875 Z M 1154.265625 524.347656 L 1157.960938 520.652344 L 1161.660156 522.5 L 1159.8125 526.195312 Z M 1150.570312 481.839844 L 1154.265625 479.992188 L 1156.113281 485.539062 L 1154.265625 487.386719 Z M 973.152344 309.96875 L 976.851562 308.121094 L 980.546875 311.816406 L 975.003906 313.664062 Z M 1078.496094 245.285156 L 1080.34375 241.589844 L 1085.886719 243.4375 L 1082.191406 247.132812 Z M 786.496094 193.539062 L 788.34375 199.082031 L 784.648438 200.933594 L 782.800781 197.234375 Z M 804.976562 178.753906 L 806.828125 176.90625 L 810.523438 182.449219 L 806.828125 184.300781 Z M 795.738281 180.601562 L 797.585938 176.90625 L 803.128906 178.753906 L 799.433594 182.449219 Z M 601.6875 1197.050781 L 603.535156 1198.898438 L 601.6875 1206.289062 L 599.839844 1204.441406 Z M 1159.8125 461.511719 L 1161.660156 459.664062 L 1169.050781 461.511719 L 1167.203125 463.359375 Z M 976.851562 322.90625 L 980.546875 319.210938 L 984.242188 322.90625 L 980.546875 326.601562 Z M 830.851562 169.515625 L 832.699219 167.667969 L 840.09375 169.515625 L 838.242188 171.363281 Z M 572.121094 1422.515625 L 573.96875 1420.667969 L 577.664062 1426.214844 L 573.96875 1428.0625 Z M 1023.050781 1311.632812 L 1028.597656 1307.933594 L 1030.445312 1309.785156 L 1028.597656 1313.480469 Z M 594.296875 1215.53125 L 597.992188 1213.683594 L 599.839844 1219.226562 L 597.992188 1221.074219 Z M 1024.902344 1117.582031 L 1026.75 1123.125 L 1023.050781 1124.976562 L 1021.203125 1123.125 Z M 1065.558594 1099.101562 L 1067.40625 1104.644531 L 1063.710938 1106.492188 L 1061.863281 1104.644531 Z M 1217.101562 966.039062 L 1218.949219 964.191406 L 1222.644531 969.734375 L 1218.949219 971.582031 Z M 531.460938 712.851562 L 533.308594 714.699219 L 529.613281 720.242188 L 527.765625 714.699219 Z M 1233.734375 468.90625 L 1235.582031 465.207031 L 1241.125 467.054688 L 1235.582031 470.753906 Z M 912.167969 411.613281 L 914.015625 413.460938 L 910.320312 419.007812 L 908.472656 413.460938 Z M 984.242188 1453.933594 L 986.089844 1448.390625 L 989.785156 1452.085938 L 986.089844 1455.78125 Z M 975.003906 1440.996094 L 978.699219 1439.148438 L 980.546875 1442.84375 L 976.851562 1444.695312 Z M 766.167969 1404.035156 L 769.863281 1402.1875 L 771.710938 1405.882812 L 768.015625 1407.730469 Z M 851.179688 1392.949219 L 854.875 1389.25 L 858.574219 1391.097656 L 854.875 1394.796875 Z M 799.433594 1392.949219 L 801.28125 1387.402344 L 804.976562 1391.097656 L 801.28125 1394.796875 Z M 585.054688 1387.402344 L 586.902344 1391.097656 L 583.207031 1394.796875 L 581.359375 1391.097656 Z M 810.523438 1385.554688 L 814.21875 1383.707031 L 816.066406 1387.402344 L 812.371094 1389.25 Z M 840.09375 1383.707031 L 843.789062 1381.859375 L 847.484375 1385.554688 L 843.789062 1387.402344 Z M 797.585938 1380.011719 L 799.433594 1378.164062 L 803.128906 1383.707031 L 801.28125 1385.554688 Z M 1058.167969 1333.808594 L 1061.863281 1331.960938 L 1063.710938 1335.65625 L 1060.015625 1337.503906 Z M 960.21875 1307.933594 L 963.914062 1306.085938 L 965.761719 1309.785156 L 962.066406 1311.632812 Z M 647.890625 1259.886719 L 651.585938 1258.035156 L 653.433594 1261.734375 L 649.738281 1263.582031 Z M 644.195312 1250.644531 L 646.042969 1254.339844 L 642.347656 1258.035156 L 640.5 1254.339844 Z M 431.664062 1187.808594 L 435.359375 1185.960938 L 439.058594 1189.65625 L 435.359375 1191.507812 Z M 243.160156 1149 L 246.855469 1147.152344 L 248.703125 1150.847656 L 245.007812 1152.695312 Z M 1058.167969 1132.367188 L 1061.863281 1130.519531 L 1063.710938 1134.214844 L 1060.015625 1136.0625 Z M 1056.316406 1124.976562 L 1058.167969 1126.824219 L 1056.316406 1132.367188 L 1052.621094 1128.671875 Z M 542.550781 1124.976562 L 546.246094 1123.125 L 548.09375 1126.824219 L 544.398438 1128.671875 Z M 429.816406 1102.796875 L 431.664062 1100.949219 L 435.359375 1106.492188 L 433.511719 1108.34375 Z M 209.894531 1097.253906 L 213.589844 1095.40625 L 215.4375 1099.101562 L 211.742188 1100.949219 Z M 980.546875 1088.011719 L 982.394531 1091.710938 L 978.699219 1095.40625 L 976.851562 1091.710938 Z M 542.550781 1091.710938 L 546.246094 1088.011719 L 549.941406 1089.859375 L 546.246094 1093.558594 Z M 982.394531 1045.507812 L 986.089844 1043.660156 L 989.785156 1047.355469 L 986.089844 1049.203125 Z M 1198.621094 1039.964844 L 1202.316406 1038.113281 L 1204.164062 1041.8125 L 1200.46875 1043.660156 Z M 477.867188 1038.113281 L 481.5625 1034.417969 L 485.257812 1036.265625 L 481.5625 1039.964844 Z M 1244.824219 1019.632812 L 1248.519531 1015.9375 L 1252.214844 1017.785156 L 1248.519531 1021.480469 Z M 640.5 1006.699219 L 644.195312 1004.847656 L 646.042969 1008.546875 L 642.347656 1010.394531 Z M 459.386719 1001.152344 L 463.082031 999.304688 L 464.929688 1003 L 461.234375 1004.847656 Z M 1071.101562 990.066406 L 1074.796875 988.214844 L 1076.648438 991.914062 L 1072.949219 993.761719 Z M 1139.480469 980.824219 L 1141.328125 978.976562 L 1146.875 980.824219 L 1143.179688 984.519531 Z M 1045.230469 973.433594 L 1048.925781 971.582031 L 1050.773438 975.28125 L 1047.078125 977.128906 Z M 721.8125 962.34375 L 725.511719 958.648438 L 729.207031 960.496094 L 725.511719 964.191406 Z M 154.453125 954.949219 L 158.148438 953.101562 L 159.996094 956.800781 L 156.300781 958.648438 Z M 427.96875 923.535156 L 431.664062 921.683594 L 433.511719 925.382812 L 429.816406 927.230469 Z M 1145.027344 842.21875 L 1146.875 840.371094 L 1152.417969 842.21875 L 1148.722656 845.914062 Z M 1087.734375 836.671875 L 1091.429688 832.976562 L 1095.128906 836.671875 L 1093.28125 838.523438 Z M 387.3125 816.34375 L 391.007812 814.496094 L 392.855469 818.191406 L 389.160156 820.039062 Z M 372.527344 810.800781 L 376.222656 808.953125 L 378.070312 812.648438 L 374.375 814.496094 Z M 328.171875 803.40625 L 331.867188 801.558594 L 333.714844 805.257812 L 330.019531 807.105469 Z M 915.863281 792.320312 L 917.710938 790.472656 L 921.40625 796.015625 L 919.558594 797.863281 Z M 366.980469 792.320312 L 370.679688 790.472656 L 372.527344 794.167969 L 368.828125 796.015625 Z M 259.792969 738.726562 L 261.640625 740.574219 L 259.792969 746.117188 L 256.097656 742.421875 Z M 597.992188 731.332031 L 599.839844 733.179688 L 597.992188 738.726562 L 594.296875 735.027344 Z M 300.449219 705.460938 L 302.300781 707.308594 L 300.449219 712.851562 L 296.753906 709.15625 Z M 588.753906 688.828125 L 590.601562 692.523438 L 586.902344 696.21875 L 585.054688 692.523438 Z M 1132.089844 690.675781 L 1135.785156 686.976562 L 1139.480469 688.828125 L 1135.785156 692.523438 Z M 187.71875 646.320312 L 191.414062 644.472656 L 193.261719 648.167969 L 189.566406 650.015625 Z M 609.082031 644.472656 L 612.777344 642.625 L 614.625 646.320312 L 610.929688 648.167969 Z M 500.042969 644.472656 L 503.742188 642.625 L 505.589844 646.320312 L 501.890625 648.167969 Z M 572.121094 614.902344 L 575.816406 613.054688 L 577.664062 616.75 L 573.96875 618.597656 Z M 374.375 609.359375 L 378.070312 605.664062 L 381.765625 609.359375 L 379.917969 611.207031 Z M 304.148438 552.066406 L 307.84375 550.21875 L 311.539062 553.917969 L 307.84375 555.765625 Z M 1156.113281 529.890625 L 1159.8125 528.042969 L 1161.660156 531.738281 L 1157.960938 533.585938 Z M 1211.558594 528.042969 L 1215.253906 526.195312 L 1217.101562 529.890625 L 1213.40625 531.738281 Z M 302.300781 528.042969 L 305.996094 526.195312 L 307.84375 529.890625 L 304.148438 531.738281 Z M 1218.949219 507.714844 L 1222.644531 505.867188 L 1224.492188 509.5625 L 1220.796875 511.410156 Z M 982.394531 385.742188 L 984.242188 383.890625 L 989.785156 385.742188 L 986.089844 389.4375 Z M 989.785156 352.476562 L 993.484375 350.625 L 995.332031 354.324219 L 991.636719 356.171875 Z M 514.828125 297.03125 L 516.675781 295.183594 L 520.371094 300.730469 L 518.523438 302.578125 Z M 993.484375 293.335938 L 995.332031 291.488281 L 1000.875 293.335938 L 997.179688 297.03125 Z M 1008.269531 284.097656 L 1011.964844 282.246094 L 1013.8125 285.945312 L 1010.117188 287.792969 Z M 1063.710938 261.917969 L 1067.40625 260.070312 L 1069.253906 263.765625 L 1065.558594 265.613281 Z M 745.839844 224.957031 L 749.535156 221.261719 L 753.230469 223.109375 L 749.535156 226.804688 Z M 705.179688 1407.730469 L 707.03125 1405.882812 L 712.574219 1407.730469 L 710.726562 1409.582031 Z M 829.003906 1396.644531 L 830.851562 1394.796875 L 836.394531 1396.644531 L 834.546875 1398.492188 Z M 967.609375 1295 L 969.457031 1296.847656 L 967.609375 1302.390625 L 965.761719 1300.542969 Z M 642.347656 1208.140625 L 644.195312 1206.289062 L 649.738281 1208.140625 L 647.890625 1209.988281 Z M 616.472656 1180.417969 L 618.320312 1178.570312 L 623.867188 1180.417969 L 622.019531 1182.265625 Z M 958.371094 1161.9375 L 960.21875 1160.089844 L 965.761719 1161.9375 L 963.914062 1163.785156 Z M 989.785156 1132.367188 L 991.636719 1134.214844 L 989.785156 1139.757812 L 987.9375 1137.910156 Z M 976.851562 1132.367188 L 978.699219 1134.214844 L 976.851562 1139.757812 L 975.003906 1137.910156 Z M 610.929688 1030.722656 L 612.777344 1032.570312 L 610.929688 1038.113281 L 609.082031 1036.265625 Z M 1104.367188 986.367188 L 1106.214844 988.214844 L 1104.367188 993.761719 L 1102.519531 991.914062 Z M 969.457031 808.953125 L 971.304688 810.800781 L 969.457031 816.34375 L 967.609375 814.496094 Z M 1054.46875 788.625 L 1056.316406 790.472656 L 1054.46875 796.015625 L 1052.621094 794.167969 Z M 285.667969 720.242188 L 287.515625 722.09375 L 285.667969 727.636719 L 283.816406 725.789062 Z M 488.957031 716.546875 L 490.804688 714.699219 L 496.347656 716.546875 L 494.5 718.394531 Z M 1023.050781 661.105469 L 1024.902344 659.257812 L 1030.445312 661.105469 L 1028.597656 662.953125 Z M 1189.378906 533.585938 L 1191.226562 531.738281 L 1196.773438 533.585938 L 1194.925781 535.433594 Z M 1002.722656 284.097656 L 1004.570312 285.945312 L 1002.722656 291.488281 L 1000.875 289.640625 Z M 736.597656 241.589844 L 738.445312 239.742188 L 743.992188 241.589844 L 742.144531 243.4375 Z M 838.242188 1416.972656 L 840.09375 1413.277344 L 843.789062 1415.125 L 840.09375 1418.820312 Z M 599.839844 1415.125 L 601.6875 1411.429688 L 605.386719 1413.277344 L 601.6875 1416.972656 Z M 816.066406 1383.707031 L 817.914062 1380.011719 L 821.609375 1381.859375 L 817.914062 1385.554688 Z M 758.777344 1380.011719 L 762.472656 1376.316406 L 764.320312 1378.164062 L 762.472656 1381.859375 Z M 525.917969 1328.265625 L 527.765625 1326.417969 L 531.460938 1330.113281 L 527.765625 1331.960938 Z M 768.015625 1317.175781 L 771.710938 1315.328125 L 773.5625 1319.023438 L 771.710938 1320.871094 Z M 636.800781 1285.757812 L 640.5 1282.0625 L 642.347656 1283.910156 L 640.5 1287.605469 Z M 999.027344 1278.367188 L 1002.722656 1274.667969 L 1004.570312 1276.519531 L 1002.722656 1280.214844 Z M 1050.773438 1274.667969 L 1054.46875 1272.820312 L 1056.316406 1276.519531 L 1054.46875 1278.367188 Z M 925.105469 1272.820312 L 928.800781 1270.972656 L 930.648438 1274.667969 L 928.800781 1276.519531 Z M 758.777344 1261.734375 L 762.472656 1259.886719 L 764.320312 1263.582031 L 762.472656 1265.429688 Z M 490.804688 1252.492188 L 494.5 1248.796875 L 496.347656 1250.644531 L 494.5 1254.339844 Z M 660.828125 1198.898438 L 664.523438 1195.203125 L 666.371094 1197.050781 L 664.523438 1200.746094 Z M 910.320312 1189.65625 L 912.167969 1185.960938 L 915.863281 1187.808594 L 912.167969 1191.507812 Z M 864.117188 1185.960938 L 865.964844 1182.265625 L 869.660156 1184.113281 L 865.964844 1187.808594 Z M 1024.902344 1180.417969 L 1028.597656 1178.570312 L 1030.445312 1182.265625 L 1028.597656 1184.113281 Z M 548.09375 1178.570312 L 549.941406 1176.722656 L 553.636719 1180.417969 L 549.941406 1182.265625 Z M 962.066406 1147.152344 L 963.914062 1145.304688 L 967.609375 1149 L 963.914062 1150.847656 Z M 498.195312 1139.757812 L 501.890625 1136.0625 L 503.742188 1137.910156 L 501.890625 1141.609375 Z M 537.003906 1136.0625 L 540.703125 1134.214844 L 542.550781 1137.910156 L 540.703125 1139.757812 Z M 967.609375 1130.519531 L 971.304688 1128.671875 L 973.152344 1132.367188 L 971.304688 1134.214844 Z M 413.183594 1126.824219 L 415.03125 1123.125 L 418.726562 1124.976562 L 415.03125 1128.671875 Z M 921.40625 1123.125 L 925.105469 1119.429688 L 926.953125 1121.277344 L 925.105469 1124.976562 Z M 182.171875 1121.277344 L 185.871094 1117.582031 L 187.71875 1119.429688 L 185.871094 1123.125 Z M 246.855469 1115.734375 L 248.703125 1112.039062 L 252.402344 1113.886719 L 248.703125 1117.582031 Z M 1032.292969 1102.796875 L 1035.988281 1100.949219 L 1037.835938 1104.644531 L 1035.988281 1106.492188 Z M 875.207031 1097.253906 L 877.054688 1093.558594 L 880.75 1095.40625 L 877.054688 1099.101562 Z M 1035.988281 1093.558594 L 1037.835938 1089.859375 L 1041.535156 1091.710938 L 1037.835938 1095.40625 Z M 658.980469 1088.011719 L 662.675781 1086.164062 L 664.523438 1089.859375 L 662.675781 1091.710938 Z M 505.589844 1086.164062 L 509.285156 1082.46875 L 511.132812 1084.316406 L 509.285156 1088.011719 Z M 804.976562 1062.140625 L 806.828125 1058.445312 L 810.523438 1060.292969 L 806.828125 1063.988281 Z M 527.765625 1051.050781 L 529.613281 1047.355469 L 533.308594 1049.203125 L 529.613281 1052.898438 Z M 1316.898438 1039.964844 L 1318.746094 1036.265625 L 1322.441406 1038.113281 L 1318.746094 1041.8125 Z M 1200.46875 1019.632812 L 1202.316406 1015.9375 L 1206.011719 1017.785156 L 1202.316406 1021.480469 Z M 677.460938 1014.089844 L 679.308594 1010.394531 L 683.003906 1012.242188 L 679.308594 1015.9375 Z M 991.636719 1008.546875 L 993.484375 1006.699219 L 997.179688 1010.394531 L 993.484375 1012.242188 Z M 1204.164062 1004.847656 L 1206.011719 1001.152344 L 1209.710938 1003 L 1206.011719 1006.699219 Z M 1137.632812 988.214844 L 1141.328125 984.519531 L 1143.179688 986.367188 L 1141.328125 990.066406 Z M 1071.101562 984.519531 L 1072.949219 980.824219 L 1076.648438 982.671875 L 1072.949219 986.367188 Z M 1087.734375 978.976562 L 1089.582031 975.28125 L 1093.28125 977.128906 L 1089.582031 980.824219 Z M 1039.683594 978.976562 L 1041.535156 975.28125 L 1045.230469 977.128906 L 1041.535156 980.824219 Z M 1274.390625 975.28125 L 1278.089844 973.433594 L 1279.9375 977.128906 L 1278.089844 978.976562 Z M 1143.179688 975.28125 L 1145.027344 971.582031 L 1148.722656 973.433594 L 1145.027344 977.128906 Z M 1085.886719 966.039062 L 1089.582031 964.191406 L 1091.429688 967.886719 L 1089.582031 969.734375 Z M 450.144531 964.191406 L 451.992188 960.496094 L 455.691406 962.34375 L 451.992188 966.039062 Z M 487.109375 934.621094 L 488.957031 932.773438 L 492.652344 936.46875 L 488.957031 938.316406 Z M 1180.140625 875.484375 L 1181.988281 873.636719 L 1185.683594 877.332031 L 1181.988281 879.179688 Z M 956.519531 860.699219 L 958.371094 857.003906 L 962.066406 858.851562 L 958.371094 862.546875 Z M 1152.417969 855.15625 L 1154.265625 853.304688 L 1157.960938 857.003906 L 1154.265625 858.851562 Z M 962.066406 851.457031 L 965.761719 849.609375 L 967.609375 853.304688 L 965.761719 855.15625 Z M 936.191406 834.824219 L 938.039062 831.128906 L 941.738281 832.976562 L 938.039062 836.671875 Z M 365.132812 825.585938 L 368.828125 823.738281 L 370.679688 827.433594 L 368.828125 829.28125 Z M 906.621094 820.039062 L 910.320312 816.34375 L 912.167969 818.191406 L 910.320312 821.890625 Z M 1130.242188 797.863281 L 1133.9375 796.015625 L 1135.785156 799.710938 L 1133.9375 801.558594 Z M 298.601562 797.863281 L 300.449219 796.015625 L 304.148438 799.710938 L 300.449219 801.558594 Z M 418.726562 794.167969 L 422.425781 792.320312 L 424.273438 796.015625 L 422.425781 797.863281 Z M 494.5 771.992188 L 498.195312 770.140625 L 500.042969 773.839844 L 498.195312 775.6875 Z M 270.882812 771.992188 L 274.578125 768.292969 L 276.425781 770.140625 L 274.578125 773.839844 Z M 261.640625 768.292969 L 265.335938 766.445312 L 267.183594 770.140625 L 265.335938 771.992188 Z M 1004.570312 764.597656 L 1006.417969 762.75 L 1010.117188 766.445312 L 1006.417969 768.292969 Z M 232.070312 736.875 L 235.769531 733.179688 L 237.617188 735.027344 L 235.769531 738.726562 Z M 477.867188 707.308594 L 479.714844 705.460938 L 483.410156 709.15625 L 479.714844 711.003906 Z M 487.109375 703.609375 L 488.957031 701.761719 L 492.652344 705.460938 L 488.957031 707.308594 Z M 204.351562 681.433594 L 208.046875 677.738281 L 209.894531 679.585938 L 208.046875 683.28125 Z M 209.894531 677.738281 L 213.589844 674.042969 L 215.4375 675.890625 L 213.589844 679.585938 Z M 718.117188 646.320312 L 719.964844 642.625 L 723.664062 644.472656 L 719.964844 648.167969 Z M 538.855469 620.449219 L 542.550781 616.75 L 544.398438 618.597656 L 542.550781 622.296875 Z M 350.347656 603.816406 L 352.195312 601.964844 L 355.894531 605.664062 L 352.195312 607.511719 Z M 424.273438 585.332031 L 426.121094 583.484375 L 429.816406 587.183594 L 426.121094 589.03125 Z M 300.449219 540.980469 L 302.300781 539.132812 L 305.996094 542.828125 L 302.300781 544.675781 Z M 330.019531 539.132812 L 331.867188 535.433594 L 335.5625 537.285156 L 331.867188 540.980469 Z M 309.691406 533.585938 L 311.539062 529.890625 L 315.234375 531.738281 L 311.539062 535.433594 Z M 1194.925781 531.738281 L 1198.621094 528.042969 L 1200.46875 529.890625 L 1198.621094 533.585938 Z M 267.183594 524.347656 L 269.035156 520.652344 L 272.730469 522.5 L 269.035156 526.195312 Z M 1202.316406 485.539062 L 1204.164062 483.6875 L 1207.859375 487.386719 L 1204.164062 489.234375 Z M 1267 470.753906 L 1268.847656 468.90625 L 1272.542969 472.601562 L 1268.847656 474.449219 Z M 1121 463.359375 L 1124.695312 459.664062 L 1126.546875 461.511719 L 1124.695312 465.207031 Z M 666.371094 455.96875 L 668.21875 454.121094 L 671.917969 457.816406 L 668.21875 459.664062 Z M 902.925781 439.335938 L 904.773438 437.488281 L 908.472656 441.183594 L 904.773438 443.03125 Z M 921.40625 382.042969 L 925.105469 378.347656 L 926.953125 380.195312 L 925.105469 383.890625 Z M 1010.117188 374.652344 L 1011.964844 372.804688 L 1015.660156 376.5 L 1011.964844 378.347656 Z M 991.636719 358.019531 L 993.484375 356.171875 L 997.179688 359.867188 L 993.484375 361.714844 Z M 984.242188 352.476562 L 986.089844 350.625 L 989.785156 354.324219 L 986.089844 356.171875 Z M 945.433594 352.476562 L 949.128906 348.777344 L 950.976562 350.625 L 949.128906 354.324219 Z M 1050.773438 337.691406 L 1054.46875 335.84375 L 1056.316406 339.539062 L 1054.46875 341.386719 Z M 1004.570312 339.539062 L 1008.269531 335.84375 L 1010.117188 337.691406 L 1008.269531 341.386719 Z M 995.332031 330.296875 L 999.027344 326.601562 L 1000.875 328.449219 L 999.027344 332.144531 Z M 982.394531 330.296875 L 986.089844 326.601562 L 987.9375 328.449219 L 986.089844 332.144531 Z M 1013.8125 300.730469 L 1017.507812 297.03125 L 1019.355469 298.878906 L 1017.507812 302.578125 Z M 1067.40625 297.03125 L 1071.101562 293.335938 L 1072.949219 295.183594 L 1071.101562 298.878906 Z M 845.636719 260.070312 L 847.484375 258.222656 L 851.179688 261.917969 L 847.484375 263.765625 Z M 736.597656 258.222656 L 740.296875 256.375 L 742.144531 260.070312 L 740.296875 261.917969 Z M 762.472656 248.980469 L 764.320312 245.285156 L 768.015625 247.132812 L 764.320312 250.832031 Z M 738.445312 221.261719 L 742.144531 217.566406 L 743.992188 219.414062 L 742.144531 223.109375 Z M 747.6875 204.628906 L 751.382812 200.933594 L 753.230469 202.78125 L 751.382812 206.476562 Z M 747.6875 204.628906 " fill-opacity="1" fill-rule="evenodd"/></svg>